<svg width="32" height="33" viewBox="0 0 32 33" fill="none" xmlns="http://www.w3.org/2000/svg">
<path d="M28 22.6478V10.3228C27.999 10.1447 27.9512 9.9701 27.8612 9.81648C27.7712 9.66286 27.6423 9.53568 27.4875 9.44776L16.4875 3.26026C16.3393 3.17469 16.1711 3.12964 16 3.12964C15.8289 3.12964 15.6607 3.17469 15.5125 3.26026L4.5125 9.44776C4.35769 9.53568 4.22879 9.66286 4.13882 9.81648C4.04884 9.9701 4.00096 10.1447 4 10.3228V22.6478C4.00096 22.8258 4.04884 23.0004 4.13882 23.154C4.22879 23.3077 4.35769 23.4348 4.5125 23.5228L15.5125 29.7103C15.6607 29.7958 15.8289 29.8409 16 29.8409C16.1711 29.8409 16.3393 29.7958 16.4875 29.7103L27.4875 23.5228C27.6423 23.4348 27.7712 23.3077 27.8612 23.154C27.9512 23.0004 27.999 22.8258 28 22.6478V22.6478Z" stroke="#FBFBFB" stroke-linecap="round" stroke-linejoin="round"/>
<path d="M27.8617 9.8103L16.1117 16.4853L4.13672 9.8103" stroke="#FBFBFB" stroke-linecap="round" stroke-linejoin="round"/>
<path d="M16.1125 16.4854L16 29.8354" stroke="#FBFBFB" stroke-linecap="round" stroke-linejoin="round"/>
</svg>
