<svg width="365" height="397" viewBox="0 0 365 397" fill="none" xmlns="http://www.w3.org/2000/svg">
<rect width="365" height="396.326" transform="translate(0 0.336914)" fill="#35405C"/>
<path d="M95.5363 237V155.011H107.631V237H95.5363ZM153.871 238.047C147.436 238.047 141.543 237.233 136.194 235.604C130.844 233.899 126.308 231.534 122.587 228.51L126.425 218.974C130.301 221.92 134.449 224.13 138.868 225.603C143.288 227.076 148.288 227.813 153.871 227.813C160.461 227.813 165.307 226.65 168.408 224.324C171.587 221.92 173.176 218.819 173.176 215.02C173.176 211.919 172.052 209.477 169.803 207.693C167.555 205.833 163.795 204.36 158.523 203.274L146.079 200.716C138.713 199.165 133.209 196.606 129.565 193.04C125.998 189.474 124.215 184.667 124.215 178.619C124.215 173.735 125.494 169.432 128.053 165.71C130.689 161.989 134.333 159.12 138.985 157.104C143.637 155.011 148.986 153.964 155.034 153.964C160.616 153.964 165.772 154.817 170.501 156.523C175.308 158.151 179.378 160.555 182.712 163.733L178.758 172.921C172.168 167.106 164.221 164.199 154.917 164.199C149.18 164.199 144.606 165.478 141.194 168.036C137.861 170.595 136.194 174.006 136.194 178.27C136.194 181.527 137.24 184.124 139.334 186.062C141.427 188 144.916 189.474 149.8 190.481L162.128 193.04C169.881 194.668 175.657 197.188 179.456 200.599C183.255 203.933 185.154 208.469 185.154 214.206C185.154 219.013 183.875 223.2 181.317 226.766C178.758 230.332 175.153 233.123 170.501 235.139C165.849 237.078 160.306 238.047 153.871 238.047ZM234.472 238.047C226.642 238.047 219.858 236.341 214.12 232.93C208.383 229.441 203.925 224.556 200.746 218.276C197.645 211.919 196.094 204.476 196.094 195.947C196.094 187.341 197.645 179.899 200.746 173.619C203.925 167.339 208.383 162.493 214.12 159.081C219.858 155.67 226.642 153.964 234.472 153.964C242.225 153.964 248.97 155.67 254.708 159.081C260.523 162.493 264.981 167.339 268.082 173.619C271.261 179.899 272.85 187.303 272.85 195.831C272.85 204.437 271.261 211.919 268.082 218.276C264.981 224.556 260.523 229.441 254.708 232.93C248.97 236.341 242.225 238.047 234.472 238.047ZM234.472 227.58C242.613 227.58 248.932 224.828 253.429 219.323C258.003 213.741 260.29 205.949 260.29 195.947C260.29 185.946 258.042 178.193 253.545 172.688C249.048 167.183 242.69 164.431 234.472 164.431C226.331 164.431 219.974 167.183 215.4 172.688C210.903 178.193 208.654 185.946 208.654 195.947C208.654 205.949 210.903 213.741 215.4 219.323C219.974 224.828 226.331 227.58 234.472 227.58Z" fill="#1C2337"/>
<path d="M25.75 21.75L31 27L36.25 21.75" stroke="#1C2337" stroke-width="2" stroke-linecap="round" stroke-linejoin="round"/>
<path d="M31 13V27" stroke="#1C2337" stroke-width="2" stroke-linecap="round" stroke-linejoin="round"/>
<path d="M42 27V34C42 34.2652 41.8946 34.5196 41.7071 34.7071C41.5196 34.8946 41.2652 35 41 35H21C20.7348 35 20.4804 34.8946 20.2929 34.7071C20.1054 34.5196 20 34.2652 20 34V27" stroke="#1C2337" stroke-width="2" stroke-linecap="round" stroke-linejoin="round"/>
</svg>
