<svg width="365" height="397" viewBox="0 0 365 397" fill="none" xmlns="http://www.w3.org/2000/svg">
<rect width="365" height="396.326" transform="translate(0 0.336914)" fill="#35405C"/>
<path d="M104.866 238.047C98.4309 238.047 92.5385 237.233 87.1889 235.604C81.8393 233.899 77.3037 231.534 73.5822 228.51L77.42 218.974C81.2965 221.92 85.4444 224.13 89.8637 225.603C94.283 227.076 99.2837 227.813 104.866 227.813C111.456 227.813 116.302 226.65 119.403 224.324C122.582 221.92 124.171 218.819 124.171 215.02C124.171 211.919 123.047 209.477 120.799 207.693C118.55 205.833 114.79 204.36 109.518 203.274L97.0741 200.716C89.7086 199.165 84.204 196.606 80.56 193.04C76.9936 189.474 75.2104 184.667 75.2104 178.619C75.2104 173.735 76.4896 169.432 79.0481 165.71C81.6842 161.989 85.3282 159.12 89.98 157.104C94.6319 155.011 99.9815 153.964 106.029 153.964C111.611 153.964 116.767 154.817 121.496 156.523C126.303 158.151 130.374 160.555 133.707 163.733L129.753 172.921C123.163 167.106 115.216 164.199 105.913 164.199C100.175 164.199 95.601 165.478 92.1896 168.036C88.8558 170.595 87.1889 174.006 87.1889 178.27C87.1889 181.527 88.2356 184.124 90.3289 186.062C92.4222 188 95.9111 189.474 100.796 190.481L113.123 193.04C120.876 194.668 126.652 197.188 130.451 200.599C134.25 203.933 136.15 208.469 136.15 214.206C136.15 219.013 134.87 223.2 132.312 226.766C129.753 230.332 126.148 233.123 121.496 235.139C116.844 237.078 111.301 238.047 104.866 238.047ZM188.259 238.047C179.343 238.047 171.822 236.38 165.697 233.046C159.572 229.635 154.92 224.789 151.742 218.509C148.64 212.229 147.09 204.747 147.09 196.064C147.09 187.458 148.679 180.015 151.858 173.735C155.037 167.377 159.65 162.493 165.697 159.081C171.744 155.67 178.994 153.964 187.444 153.964C193.259 153.964 198.648 154.817 203.61 156.523C208.572 158.229 212.72 160.671 216.053 163.85L211.75 173.27C208.029 170.168 204.23 167.959 200.353 166.641C196.477 165.245 192.174 164.547 187.444 164.547C178.373 164.547 171.473 167.3 166.744 172.804C162.014 178.232 159.65 185.985 159.65 196.064C159.65 206.375 162.053 214.206 166.86 219.556C171.744 224.905 179.032 227.58 188.724 227.58C194.616 227.58 200.47 226.611 206.284 224.673V202.693H186.282V193.621H216.402V232.232C212.913 233.938 208.572 235.333 203.377 236.419C198.26 237.504 193.221 238.047 188.259 238.047ZM262.275 238.047C255.84 238.047 249.947 237.233 244.598 235.604C239.248 233.899 234.713 231.534 230.991 228.51L234.829 218.974C238.705 221.92 242.853 224.13 247.273 225.603C251.692 227.076 256.693 227.813 262.275 227.813C268.865 227.813 273.711 226.65 276.812 224.324C279.991 221.92 281.58 218.819 281.58 215.02C281.58 211.919 280.456 209.477 278.207 207.693C275.959 205.833 272.199 204.36 266.927 203.274L254.483 200.716C247.118 199.165 241.613 196.606 237.969 193.04C234.402 189.474 232.619 184.667 232.619 178.619C232.619 173.735 233.898 169.432 236.457 165.71C239.093 161.989 242.737 159.12 247.389 157.104C252.041 155.011 257.39 153.964 263.438 153.964C269.02 153.964 274.176 154.817 278.905 156.523C283.712 158.151 287.782 160.555 291.116 163.733L287.162 172.921C280.572 167.106 272.625 164.199 263.321 164.199C257.584 164.199 253.01 165.478 249.598 168.036C246.265 170.595 244.598 174.006 244.598 178.27C244.598 181.527 245.644 184.124 247.738 186.062C249.831 188 253.32 189.474 258.204 190.481L270.532 193.04C278.285 194.668 284.061 197.188 287.86 200.599C291.659 203.933 293.558 208.469 293.558 214.206C293.558 219.013 292.279 223.2 289.721 226.766C287.162 230.332 283.557 233.123 278.905 235.139C274.253 237.078 268.71 238.047 262.275 238.047Z" fill="#1C2337"/>
<path d="M25.75 21.75L31 27L36.25 21.75" stroke="#1C2337" stroke-width="2" stroke-linecap="round" stroke-linejoin="round"/>
<path d="M31 13V27" stroke="#1C2337" stroke-width="2" stroke-linecap="round" stroke-linejoin="round"/>
<path d="M42 27V34C42 34.2652 41.8946 34.5196 41.7071 34.7071C41.5196 34.8946 41.2652 35 41 35H21C20.7348 35 20.4804 34.8946 20.2929 34.7071C20.1054 34.5196 20 34.2652 20 34V27" stroke="#1C2337" stroke-width="2" stroke-linecap="round" stroke-linejoin="round"/>
</svg>
