<svg width="429" height="182" viewBox="0 0 429 182" fill="none" xmlns="http://www.w3.org/2000/svg">
<path d="M427.141 52.2273C429.264 63.18 425.538 74.7727 416.744 86.414C407.951 98.0557 394.153 109.655 376.349 120.547C340.747 142.327 289.313 161.165 230.49 171.857C171.666 182.548 116.678 183.052 75.3428 175.255C54.6717 171.356 37.4686 165.392 24.9137 157.63C12.3592 149.869 4.54484 140.374 2.42163 129.421C0.298421 118.468 4.02483 106.875 12.8181 95.2341C21.6117 83.5924 35.4099 71.9932 53.2138 61.1014C88.8157 39.3214 140.249 20.4827 199.073 9.7913C257.897 -0.900053 312.884 -1.40359 354.22 6.39293C374.891 10.2919 392.094 16.2565 404.649 24.0181C417.203 31.7794 425.018 41.2745 427.141 52.2273Z" stroke="url(#paint0_linear_1544_9014)" stroke-width="2"/>
<defs>
<linearGradient id="paint0_linear_1544_9014" x1="1.43773" y1="129.6" x2="427.16" y2="47.0723" gradientUnits="userSpaceOnUse">
<stop stop-color="#22BAFB"/>
<stop offset="0.234375" stop-color="#64EEB4"/>
<stop offset="0.546875" stop-color="#FFF5DD"/>
<stop offset="0.653646" stop-color="#C8F3F9"/>
<stop offset="1" stop-color="#184CD1"/>
</linearGradient>
</defs>
</svg>
