<svg width="64" height="64" viewBox="0 0 64 64" fill="none" xmlns="http://www.w3.org/2000/svg">
<path d="M9.17881 43.2498L15.2288 8.97478C15.2711 8.71609 15.3644 8.46841 15.5034 8.24617C15.6424 8.02393 15.8242 7.83158 16.0383 7.68033C16.2524 7.52908 16.4944 7.42196 16.7503 7.36521C17.0062 7.30846 17.2709 7.30321 17.5288 7.34978L31.3288 9.77478C31.8502 9.87227 32.3125 10.1704 32.6164 10.6052C32.9203 11.04 33.0414 11.5766 32.9538 12.0998L26.8788 46.5748C26.4628 48.8962 25.1546 50.9625 23.2343 52.3315C21.3139 53.7005 18.934 54.2634 16.6038 53.8998C11.6288 53.0998 8.30381 48.2248 9.17881 43.2498Z" stroke="#FBFBFB" stroke-width="2" stroke-linecap="round" stroke-linejoin="round"/>
<path d="M29.5781 31.1999L47.8031 24.5749C48.0509 24.4834 48.3143 24.4419 48.5783 24.4527C48.8422 24.4636 49.1013 24.5267 49.3407 24.6382C49.5801 24.7498 49.7951 24.9077 49.9731 25.1028C50.1512 25.2979 50.2888 25.5263 50.3781 25.7749L55.1781 38.9249C55.3552 39.4222 55.3284 39.9694 55.1036 40.4471C54.8788 40.9248 54.4742 41.2943 53.9781 41.4749L21.0781 53.4499" stroke="#FBFBFB" stroke-width="2" stroke-linecap="round" stroke-linejoin="round"/>
<path d="M55 40.625V52C55 52.5304 54.7893 53.0391 54.4142 53.4142C54.0391 53.7893 53.5304 54 53 54H18" stroke="#FBFBFB" stroke-width="2" stroke-linecap="round" stroke-linejoin="round"/>
<path d="M18 48C19.6569 48 21 46.6569 21 45C21 43.3431 19.6569 42 18 42C16.3431 42 15 43.3431 15 45C15 46.6569 16.3431 48 18 48Z" fill="#FBFBFB"/>
</svg>
