<svg width="180" height="209" viewBox="0 0 180 209" fill="none" xmlns="http://www.w3.org/2000/svg">
<path d="M73.5495 111.366C91.7453 156.084 122.809 185.698 142.933 177.51C163.056 169.322 164.619 126.433 146.423 81.714C128.227 36.9953 97.1633 7.38141 77.0399 15.5695C56.9165 23.7576 55.3538 66.647 73.5495 111.366Z" stroke="#F5F7FA" stroke-width="3" stroke-linecap="round" stroke-linejoin="round"/>
<path d="M77.0391 15.5695L36.5539 32.0427C16.4125 40.2381 14.8607 83.1028 33.0635 127.839C51.2664 172.575 82.3051 202.179 102.447 193.983L142.932 177.51" stroke="#F5F7FA" stroke-width="3" stroke-linecap="round" stroke-linejoin="round"/>
<path d="M63.4082 77.7432L22.923 94.2164" stroke="#F5F7FA" stroke-width="3" stroke-linecap="round" stroke-linejoin="round"/>
<path d="M89.7656 142.52L49.5994 158.863" stroke="#F5F7FA" stroke-width="3" stroke-linecap="round" stroke-linejoin="round"/>
<path d="M133.739 139.297L128.987 130.04C126.66 133.447 124.195 136.17 121.591 138.209C118.993 140.139 116.316 141.145 113.559 141.226L112.697 134.924C115.493 134.683 118.057 133.753 120.39 132.135C122.694 130.46 125.082 127.707 127.556 123.873C130.605 119.147 132.378 114.602 132.875 110.237C133.344 105.817 132.736 101.967 131.053 98.6868C129.683 96.0182 128.04 94.772 126.122 94.9482C124.239 95.0718 121.785 96.6303 118.759 99.6236L112.922 105.675C109.331 109.345 106.162 111.112 103.416 110.976C100.675 110.732 98.234 108.525 96.0937 104.356C94.4957 101.242 93.5262 97.7535 93.1853 93.8894C92.8444 90.0253 93.1161 86.1103 94.0004 82.1442C94.89 78.07 96.3788 74.215 98.4668 70.5794L93.7154 61.3225L96.4596 57.0691L101.254 66.4093C103.062 64.0061 105.13 62.0492 107.457 60.5386C109.818 58.9755 112.21 58.3622 114.634 58.6987L115.554 64.7589C112.938 64.5212 110.529 65.1608 108.327 66.6775C106.096 68.1387 103.964 70.4446 101.931 73.5954C99.2207 77.7963 97.6063 82.2953 97.0876 87.0922C96.6029 91.8367 97.288 96.0158 99.1429 99.6296C100.598 102.465 102.293 103.931 104.228 104.026C106.135 104.066 108.423 102.716 111.092 99.9762L116.92 94.087C120.811 90.0528 124.152 87.9691 126.943 87.8361C129.706 87.6475 132.1 89.5269 134.126 93.4743C136.466 98.0332 137.367 103.225 136.829 109.051C136.291 114.876 134.577 120.427 131.689 125.703L136.483 135.043L133.739 139.297Z" fill="#F5F7FA"/>
</svg>
