<svg width="365" height="397" viewBox="0 0 365 397" fill="none" xmlns="http://www.w3.org/2000/svg">
<rect width="365" height="396.326" fill="#35405C"/>
<path d="M126.252 198.337V135.543C126.252 134.029 126.853 132.577 127.924 131.506C128.995 130.436 130.447 129.834 131.961 129.834H200.463L240.423 169.794V198.337" stroke="#1C2337" stroke-width="11" stroke-linecap="round" stroke-linejoin="round"/>
<path d="M200.463 129.834V169.794H240.423" stroke="#1C2337" stroke-width="11" stroke-linecap="round" stroke-linejoin="round"/>
<path d="M126.252 249.714H137.669C140.697 249.714 143.601 248.511 145.742 246.37C147.883 244.229 149.086 241.325 149.086 238.297C149.086 235.269 147.883 232.365 145.742 230.224C143.601 228.083 140.697 226.88 137.669 226.88H126.252V261.131" stroke="#1C2337" stroke-width="11" stroke-linecap="round" stroke-linejoin="round"/>
<path d="M246.13 226.88H226.15V261.131" stroke="#1C2337" stroke-width="11" stroke-linecap="round" stroke-linejoin="round"/>
<path d="M243.276 246.86H226.15" stroke="#1C2337" stroke-width="11" stroke-linecap="round" stroke-linejoin="round"/>
<path d="M183.338 261.131C187.88 261.131 192.236 259.327 195.447 256.115C198.659 252.903 200.463 248.547 200.463 244.005C200.463 239.463 198.659 235.107 195.447 231.896C192.236 228.684 187.88 226.88 183.338 226.88H173.348V261.131H183.338Z" stroke="#1C2337" stroke-width="11" stroke-linecap="round" stroke-linejoin="round"/>
<path d="M25.75 21.4131L31 26.6631L36.25 21.4131" stroke="#1C2337" stroke-width="2" stroke-linecap="round" stroke-linejoin="round"/>
<path d="M31 12.6631V26.6631" stroke="#1C2337" stroke-width="2" stroke-linecap="round" stroke-linejoin="round"/>
<path d="M42 26.6631V33.6631C42 33.9283 41.8946 34.1827 41.7071 34.3702C41.5196 34.5577 41.2652 34.6631 41 34.6631H21C20.7348 34.6631 20.4804 34.5577 20.2929 34.3702C20.1054 34.1827 20 33.9283 20 33.6631V26.6631" stroke="#1C2337" stroke-width="2" stroke-linecap="round" stroke-linejoin="round"/>
</svg>
