<svg width="323" height="138" viewBox="0 0 323 138" fill="none" xmlns="http://www.w3.org/2000/svg">
<path d="M321.225 39.9249C322.805 48.0791 320.037 56.7377 313.442 65.4692C306.846 74.2011 296.485 82.9149 283.097 91.1057C256.325 107.484 217.633 121.658 173.368 129.703C129.104 137.748 87.737 138.125 56.6539 132.262C41.1088 129.33 28.1897 124.848 18.7728 119.026C9.35641 113.205 3.53421 106.107 1.95349 97.9531C0.372772 89.7988 3.14066 81.1403 9.736 72.4088C16.3317 63.6769 26.6926 54.9631 40.0815 46.7722C66.8531 30.3942 105.545 16.2198 149.81 8.17464C194.074 0.129477 235.441 -0.247007 266.524 5.61578C282.069 8.54784 294.988 13.0304 304.405 18.852C313.822 24.6733 319.644 31.7706 321.225 39.9249Z" stroke="url(#paint0_linear_1544_12609)" stroke-width="2"/>
<defs>
<linearGradient id="paint0_linear_1544_12609" x1="0.969591" y1="98.1318" x2="321.482" y2="35.9997" gradientUnits="userSpaceOnUse">
<stop stop-color="#22BAFB"/>
<stop offset="0.234375" stop-color="#64EEB4"/>
<stop offset="0.546875" stop-color="#FFF5DD"/>
<stop offset="0.653646" stop-color="#C8F3F9"/>
<stop offset="1" stop-color="#184CD1"/>
</linearGradient>
</defs>
</svg>
