<svg width="3" height="10" viewBox="0 0 3 10" fill="none" xmlns="http://www.w3.org/2000/svg">
<path d="M2.5828e-07 5C2.28104e-07 5.69036 0.671573 6.25 1.5 6.25C2.32843 6.25 3 5.69036 3 5C3 4.30964 2.32843 3.75 1.5 3.75C0.671573 3.75 2.88457e-07 4.30964 2.5828e-07 5Z" fill="#231F20"/>
<path d="M4.22198e-07 1.25C3.92022e-07 1.94036 0.671573 2.5 1.5 2.5C2.32843 2.5 3 1.94036 3 1.25C3 0.559644 2.32843 -2.93554e-08 1.5 -6.55671e-08C0.671573 -1.01779e-07 4.52374e-07 0.559644 4.22198e-07 1.25Z" fill="#231F20"/>
<path d="M9.43625e-08 8.75C6.41861e-08 9.44036 0.671573 10 1.5 10C2.32843 10 3 9.44036 3 8.75C3 8.05964 2.32843 7.5 1.5 7.5C0.671573 7.5 1.24539e-07 8.05964 9.43625e-08 8.75Z" fill="#231F20"/>
</svg>
