<svg width="52" height="53" viewBox="0 0 52 53" fill="none" xmlns="http://www.w3.org/2000/svg">
<path d="M19.5 24.7834C28.4746 24.7834 35.75 21.5095 35.75 17.4709C35.75 13.4324 28.4746 10.1584 19.5 10.1584C10.5254 10.1584 3.25 13.4324 3.25 17.4709C3.25 21.5095 10.5254 24.7834 19.5 24.7834Z" stroke="#FBFBFB" stroke-linecap="round" stroke-linejoin="round"/>
<path d="M3.25 17.4709V25.5959C3.25 29.6381 10.5219 32.9084 19.5 32.9084C28.4781 32.9084 35.75 29.6381 35.75 25.5959V17.4709" stroke="#FBFBFB" stroke-linecap="round" stroke-linejoin="round"/>
<path d="M13 24.1741V32.2991" stroke="#FBFBFB" stroke-linecap="round" stroke-linejoin="round"/>
<path d="M35.75 20.0504C43.1641 20.741 48.75 23.6863 48.75 27.2207C48.75 31.2629 41.4781 34.5332 32.5 34.5332C28.5187 34.5332 24.8625 33.8832 22.0391 32.8269" stroke="#FBFBFB" stroke-linecap="round" stroke-linejoin="round"/>
<path d="M16.25 32.7663V35.3459C16.25 39.3881 23.5219 42.6584 32.5 42.6584C41.4781 42.6584 48.75 39.3881 48.75 35.3459V27.2209" stroke="#FBFBFB" stroke-linecap="round" stroke-linejoin="round"/>
<path d="M39 33.9241V42.0491" stroke="#FBFBFB" stroke-linecap="round" stroke-linejoin="round"/>
<path d="M26 24.1741V42.0491" stroke="#FBFBFB" stroke-linecap="round" stroke-linejoin="round"/>
</svg>
