<svg width="314" height="213" viewBox="0 0 314 213" fill="none" xmlns="http://www.w3.org/2000/svg">
<path d="M5.33853 25.106C0.459785 34.1937 -0.0199663 45.133 3.35597 57.1784C6.73284 69.227 13.9607 82.3511 24.446 95.7555C45.4158 122.563 79.3545 150.415 121.299 172.933C163.244 195.451 205.211 208.349 239.142 211.014C256.108 212.347 271.04 211.12 282.948 207.277C294.853 203.435 303.706 196.991 308.585 187.903C313.463 178.815 313.943 167.876 310.567 155.83C307.19 143.782 299.963 130.658 289.477 117.253C268.507 90.4457 234.569 62.5936 192.624 40.0756C150.679 17.5576 108.712 4.65991 74.7814 1.99446C57.8154 0.661685 42.8831 1.88909 30.9748 5.73199C19.0699 9.57385 10.2173 16.0182 5.33853 25.106Z" stroke="url(#paint0_linear_1879_20938)"/>
<defs>
<linearGradient id="paint0_linear_1879_20938" x1="309.025" y1="188.139" x2="4.89806" y2="24.8693" gradientUnits="userSpaceOnUse">
<stop stop-color="#22BAFB"/>
<stop offset="0.234375" stop-color="#64EEB4"/>
<stop offset="0.546875" stop-color="#FFF5DD"/>
<stop offset="0.653646" stop-color="#C8F3F9"/>
<stop offset="1" stop-color="#184CD1"/>
</linearGradient>
</defs>
</svg>
